<?xml version="1.0" encoding="utf-8"?>
<!-- Generated by Mocodo 4.3.2 -->
<svg width="379" height="340" viewBox="0 0 379 340" xmlns="http://www.w3.org/2000/svg">
<rect x="0" y="0" width="379" height="340" fill="#f5f5f5" stroke="none" stroke-width="0"/>

<!-- Association POSSEDER -->
<g>
	<line x1="184" y1="60" x2="57" y2="60" stroke="#bf812d" stroke-width="2"/>
	<line x1="57" y1="170" x2="57" y2="60" stroke="#bf812d" stroke-width="2"/>
	<g>
		<path d="M78 35 a14 14 90 0 1 14 14 V60 h-70 V49 a14 14 90 0 1 14 -14" fill="#dfc27d" stroke="#dfc27d" stroke-width="0"/>
		<path d="M92 60 v11 a14 14 90 0 1 -14 14 H36 a14 14 90 0 1 -14 -14 V60 H70" fill="#f6e8c3" stroke="#f6e8c3" stroke-width="0"/>
		<rect x="22" y="35" width="70" height="50" fill="none" rx="14" stroke="#bf812d" stroke-width="2"/>
		<line x1="22" y1="60" x2="92" y2="60" stroke="#bf812d" stroke-width="1"/>
		<text x="30" y="52.75" fill="#000000" font-family="Verdana" font-size="12">posseder</text>
	</g>
	<text x="108" y="77" fill="#01665e" font-family="Verdana" font-size="12">1,N</text>
	<text x="62" y="128" fill="#01665e" font-family="Verdana" font-size="12">1,1</text>
</g>

<!-- Association LOCALISER -->
<g>
	<line x1="326" y1="170" x2="326" y2="60" stroke="#bf812d" stroke-width="2"/>
	<line x1="184" y1="60" x2="326" y2="60" stroke="#bf812d" stroke-width="2"/>
	<g>
		<path d="M344 35 a14 14 90 0 1 14 14 V60 h-64 V49 a14 14 90 0 1 14 -14" fill="#dfc27d" stroke="#dfc27d" stroke-width="0"/>
		<path d="M358 60 v11 a14 14 90 0 1 -14 14 H308 a14 14 90 0 1 -14 -14 V60 H64" fill="#f6e8c3" stroke="#f6e8c3" stroke-width="0"/>
		<rect x="294" y="35" width="64" height="50" fill="none" rx="14" stroke="#bf812d" stroke-width="2"/>
		<line x1="294" y1="60" x2="358" y2="60" stroke="#bf812d" stroke-width="1"/>
		<text x="301" y="52.75" fill="#000000" font-family="Verdana" font-size="12">localiser</text>
	</g>
	<text x="331" y="128" fill="#01665e" font-family="Verdana" font-size="12">1,N</text>
	<text x="238" y="77" fill="#01665e" font-family="Verdana" font-size="12">0,N</text>
</g>

<!-- Association ARRIVER -->
<g>
	<line x1="57" y1="170" x2="184" y2="170" stroke="#bf812d" stroke-width="2"/>
	<line x1="184" y1="280" x2="184" y2="170" stroke="#bf812d" stroke-width="2"/>
	<g>
		<path d="M198 145 a14 14 90 0 1 14 14 V170 h-56 V159 a14 14 90 0 1 14 -14" fill="#dfc27d" stroke="#dfc27d" stroke-width="0"/>
		<path d="M212 170 v11 a14 14 90 0 1 -14 14 H170 a14 14 90 0 1 -14 -14 V170 H56" fill="#f6e8c3" stroke="#f6e8c3" stroke-width="0"/>
		<rect x="156" y="145" width="56" height="50" fill="none" rx="14" stroke="#bf812d" stroke-width="2"/>
		<line x1="156" y1="170" x2="212" y2="170" stroke="#bf812d" stroke-width="1"/>
		<text x="164" y="162.75" fill="#000000" font-family="Verdana" font-size="12">arriver</text>
	</g>
	<text x="110" y="187" fill="#01665e" font-family="Verdana" font-size="12">0,N</text>
	<text x="189" y="221" fill="#01665e" font-family="Verdana" font-size="12">1,1</text>
</g>

<!-- Association PARTIR -->
<g>
	<line x1="57" y1="170" x2="57" y2="280" stroke="#bf812d" stroke-width="2"/>
	<line x1="184" y1="280" x2="57" y2="280" stroke="#bf812d" stroke-width="2"/>
	<g>
		<path d="M67 255 a14 14 90 0 1 14 14 V280 h-48 V269 a14 14 90 0 1 14 -14" fill="#dfc27d" stroke="#dfc27d" stroke-width="0"/>
		<path d="M81 280 v11 a14 14 90 0 1 -14 14 H47 a14 14 90 0 1 -14 -14 V280 H48" fill="#f6e8c3" stroke="#f6e8c3" stroke-width="0"/>
		<rect x="33" y="255" width="48" height="50" fill="none" rx="14" stroke="#bf812d" stroke-width="2"/>
		<line x1="33" y1="280" x2="81" y2="280" stroke="#bf812d" stroke-width="1"/>
		<text x="40" y="272.75" fill="#000000" font-family="Verdana" font-size="12">partir</text>
	</g>
	<text x="62" y="221" fill="#01665e" font-family="Verdana" font-size="12">0,N</text>
	<text x="87" y="297" fill="#01665e" font-family="Verdana" font-size="12">1,1</text>
</g>

<!-- Association APPARTENIR -->
<g>
	<line x1="326" y1="170" x2="326" y2="280" stroke="#bf812d" stroke-width="2"/>
	<line x1="184" y1="280" x2="326" y2="280" stroke="#bf812d" stroke-width="2"/>
	<g>
		<path d="M351 255 a14 14 90 0 1 14 14 V280 h-78 V269 a14 14 90 0 1 14 -14" fill="#dfc27d" stroke="#dfc27d" stroke-width="0"/>
		<path d="M365 280 v11 a14 14 90 0 1 -14 14 H301 a14 14 90 0 1 -14 -14 V280 H78" fill="#f6e8c3" stroke="#f6e8c3" stroke-width="0"/>
		<rect x="287" y="255" width="78" height="50" fill="none" rx="14" stroke="#bf812d" stroke-width="2"/>
		<line x1="287" y1="280" x2="365" y2="280" stroke="#bf812d" stroke-width="1"/>
		<text x="295" y="272.75" fill="#000000" font-family="Verdana" font-size="12">appartenir</text>
	</g>
	<text x="331" y="221" fill="#01665e" font-family="Verdana" font-size="12">0,N</text>
	<text x="260" y="297" fill="#01665e" font-family="Verdana" font-size="12">1,1</text>
</g>

<!-- Entity AEROPORT -->
<g>
	<g>
		<rect x="135" y="9" width="98" height="25" fill="#80cdc1" stroke="none" stroke-width="0" opacity="1"/>
		<rect x="135" y="34" width="98" height="77" fill="#c7eae5" stroke="none" stroke-width="0" opacity="1"/>
		<rect x="135" y="9" width="98" height="102" fill="none" stroke="#35978f" stroke-width="2" opacity="1"/>
		<line x1="135" y1="34" x2="233" y2="34" stroke="#35978f" stroke-width="1"/>
	</g>
	<text x="158" y="26.75" fill="#000000" font-family="Verdana" font-size="12">aeroport</text>
	<text x="140" y="51.8" fill="#000000" font-family="Verdana" font-size="12">id_aeroport</text>
	<line x1="140" y1="54" x2="211" y2="54" stroke="#000000" stroke-width="1"/>
	<text x="140" y="68.8" fill="#000000" font-family="Verdana" font-size="12">nom_aeroport</text>
	<text x="140" y="85.8" fill="#000000" font-family="Verdana" font-size="12">ville</text>
	<text x="140" y="102.8" fill="#000000" font-family="Verdana" font-size="12">pays</text>
</g>

<!-- Entity TERMINAL -->
<g>
	<g>
		<rect x="9" y="136" width="96" height="25" fill="#80cdc1" stroke="none" stroke-width="0" opacity="1"/>
		<rect x="9" y="161" width="96" height="43" fill="#c7eae5" stroke="none" stroke-width="0" opacity="1"/>
		<rect x="9" y="136" width="96" height="68" fill="none" stroke="#35978f" stroke-width="2" opacity="1"/>
		<line x1="9" y1="161" x2="105" y2="161" stroke="#35978f" stroke-width="1"/>
	</g>
	<text x="32" y="153.75" fill="#000000" font-family="Verdana" font-size="12">terminal</text>
	<text x="14" y="178.8" fill="#000000" font-family="Verdana" font-size="12">id_terminal</text>
	<line x1="14" y1="181" x2="83" y2="181" stroke="#000000" stroke-width="1"/>
	<text x="14" y="195.8" fill="#000000" font-family="Verdana" font-size="12">nom_terminal</text>
</g>

<!-- Entity COMPANIE -->
<g>
	<g>
		<rect x="282" y="136" width="88" height="25" fill="#80cdc1" stroke="none" stroke-width="0" opacity="1"/>
		<rect x="282" y="161" width="88" height="43" fill="#c7eae5" stroke="none" stroke-width="0" opacity="1"/>
		<rect x="282" y="136" width="88" height="68" fill="none" stroke="#35978f" stroke-width="2" opacity="1"/>
		<line x1="282" y1="161" x2="370" y2="161" stroke="#35978f" stroke-width="1"/>
	</g>
	<text x="297" y="153.75" fill="#000000" font-family="Verdana" font-size="12">companie</text>
	<text x="287" y="178.8" fill="#000000" font-family="Verdana" font-size="12">id_companie</text>
	<line x1="287" y1="181" x2="364" y2="181" stroke="#000000" stroke-width="1"/>
	<text x="287" y="195.8" fill="#000000" font-family="Verdana" font-size="12">nom_comp</text>
</g>

<!-- Entity VOL -->
<g>
	<g>
		<rect x="113" y="229" width="142" height="25" fill="#80cdc1" stroke="none" stroke-width="0" opacity="1"/>
		<rect x="113" y="254" width="142" height="77" fill="#c7eae5" stroke="none" stroke-width="0" opacity="1"/>
		<rect x="113" y="229" width="142" height="102" fill="none" stroke="#35978f" stroke-width="2" opacity="1"/>
		<line x1="113" y1="254" x2="255" y2="254" stroke="#35978f" stroke-width="1"/>
	</g>
	<text x="175" y="246.75" fill="#000000" font-family="Verdana" font-size="12">vol</text>
	<text x="118" y="271.8" fill="#000000" font-family="Verdana" font-size="12">id_vol</text>
	<line x1="118" y1="274" x2="155" y2="274" stroke="#000000" stroke-width="1"/>
	<text x="118" y="288.8" fill="#000000" font-family="Verdana" font-size="12">nom_vol</text>
	<text x="118" y="305.8" fill="#000000" font-family="Verdana" font-size="12">date_heure_depart</text>
	<text x="118" y="322.8" fill="#000000" font-family="Verdana" font-size="12">depart_heure_arrivee</text>
</g>
</svg>